<?xml version='1.0' encoding='iso-8859-1'?>
<!DOCTYPE svg PUBLIC '-//W3C//DTD SVG 1.1//EN' 'http://www.w3.org/Graphics/SVG/1.1/DTD/svg11.dtd'>
<svg version="1.1" xmlns="http://www.w3.org/2000/svg" viewBox="0 0 445.738 445.738" xmlns:xlink="http://www.w3.org/1999/xlink" enable-background="new 0 0 445.738 445.738">
  <g>
    <path d="m352.369,107.318c1.71,0 3.39-0.7 4.6-1.91 1.21-1.21 1.9-2.88 1.9-4.6 0-1.71-0.69-3.38-1.9-4.59-1.21-1.21-2.89-1.9-4.6-1.9s-3.39,0.69-4.59,1.9c-1.21,1.21-1.91,2.88-1.91,4.59 0,1.72 0.7,3.39 1.91,4.6 1.21,1.21 2.88,1.91 4.59,1.91z"/>
    <path d="m329.369,123.318c1.71,0 3.39-0.7 4.6-1.91 1.21-1.21 1.9-2.88 1.9-4.59 0-1.71-0.69-3.39-1.9-4.6-1.21-1.21-2.89-1.9-4.6-1.9s-3.39,0.69-4.59,1.9c-1.21,1.21-1.91,2.89-1.91,4.6 0,1.71 0.7,3.38 1.91,4.59 1.2,1.21 2.88,1.91 4.59,1.91z"/>
    <path d="m305.369,136.318c1.71,0 3.39-0.7 4.6-1.91 1.21-1.21 1.9-2.88 1.9-4.59 0-1.72-0.69-3.39-1.9-4.6-1.21-1.21-2.89-1.9-4.6-1.9s-3.39,0.69-4.59,1.9c-1.21,1.21-1.91,2.88-1.91,4.6 0,1.71 0.7,3.38 1.91,4.59 1.2,1.21 2.88,1.91 4.59,1.91z"/>
    <path d="m249.369,354.318c-1.71,0-3.39,0.69-4.6,1.9-1.21,1.21-1.9,2.88-1.9,4.6 0,1.71 0.69,3.38 1.9,4.59 1.21,1.21 2.89,1.9 4.6,1.9s3.38-0.69 4.59-1.9c1.22-1.21 1.91-2.88 1.91-4.59 0-1.71-0.69-3.39-1.91-4.6-1.21-1.21-2.88-1.9-4.59-1.9z"/>
    <path d="m222.869,71.318c1.71,0 3.39-0.7 4.6-1.91 1.21-1.21 1.9-2.88 1.9-4.6 0-1.71-0.69-3.38-1.9-4.59-1.21-1.21-2.89-1.9-4.6-1.9s-3.38,0.69-4.59,1.9c-1.21,1.21-1.91,2.88-1.91,4.59 0,1.72 0.7,3.39 1.91,4.6 1.2,1.21 2.88,1.91 4.59,1.91z"/>
    <path d="m222.869,93.848c1.71,0 3.39-0.69 4.6-1.9 1.21-1.21 1.9-2.89 1.9-4.6 0-1.71-0.69-3.39-1.9-4.59-1.21-1.21-2.89-1.91-4.6-1.91s-3.38,0.7-4.59,1.9c-1.21,1.21-1.91,2.89-1.91,4.6 0,1.71 0.7,3.39 1.91,4.6 1.2,1.21 2.88,1.9 4.59,1.9z"/>
    <path d="m222.869,143.848c-1.71,0-3.38,0.7-4.59,1.9-1.21,1.21-1.91,2.89-1.91,4.6 0,1.72 0.7,3.39 1.91,4.6 1.21,1.21 2.88,1.9 4.59,1.9s3.39-0.69 4.6-1.9c1.21-1.21 1.9-2.89 1.9-4.6 0-1.71-0.69-3.39-1.9-4.6-1.21-1.2-2.89-1.9-4.6-1.9z"/>
    <path d="m200.959,356.218c-1.2-1.21-2.88-1.9-4.59-1.9s-3.39,0.69-4.6,1.9c-1.21,1.21-1.9,2.88-1.9,4.59 0,1.72 0.69,3.39 1.9,4.6 1.21,1.21 2.89,1.91 4.6,1.91s3.38-0.7 4.59-1.91c1.21-1.21 1.91-2.88 1.91-4.6 0-1.71-0.7-3.38-1.91-4.59z"/>
    <path d="m140.369,136.318c1.71,0 3.39-0.7 4.6-1.91 1.21-1.21 1.9-2.88 1.9-4.6 0-1.71-0.69-3.38-1.9-4.59-1.21-1.21-2.89-1.91-4.6-1.91s-3.38,0.7-4.6,1.91c-1.21,1.21-1.9,2.88-1.9,4.59 0,1.72 0.69,3.39 1.9,4.6 1.22,1.21 2.89,1.91 4.6,1.91z"/>
    <path d="m116.369,123.318c1.71,0 3.39-0.7 4.6-1.91 1.21-1.21 1.9-2.88 1.9-4.59 0-1.72-0.69-3.39-1.9-4.6-1.21-1.21-2.89-1.9-4.6-1.9s-3.38,0.69-4.59,1.9c-1.21,1.21-1.91,2.88-1.91,4.6 0,1.71 0.7,3.38 1.91,4.59 1.21,1.21 2.88,1.91 4.59,1.91z"/>
    <path d="m93.369,107.308c1.71,0 3.39-0.69 4.6-1.9 1.21-1.21 1.9-2.88 1.9-4.59 0-1.72-0.69-3.39-1.9-4.6-1.21-1.21-2.89-1.9-4.6-1.9s-3.38,0.69-4.59,1.9c-1.21,1.21-1.91,2.88-1.91,4.6 0,1.71 0.7,3.38 1.91,4.59 1.2,1.21 2.88,1.9 4.59,1.9z"/>
    <path d="m222.869,137.418c10.239,0 18.57-8.331 18.57-18.57s-8.331-18.57-18.57-18.57c-10.24,0-18.57,8.33-18.57,18.57s8.331,18.57 18.57,18.57zm0-29.14c5.828,0 10.57,4.742 10.57,10.57 0,5.828-4.742,10.57-10.57,10.57-5.829,0-10.57-4.742-10.57-10.57 0-5.828 4.742-10.57 10.57-10.57z"/>
    <path d="m400.887,138.153c16.878-15.549 28.102-46.159 28.102-65.895 0-27.818-22.636-50.45-50.46-50.45-17.287,0-33.301,8.937-42.499,23.248-13.873-8.803-29.457-14.365-45.736-16.319 2.868-7.768 6.628-14.002 11.047-18.257 1.705-1.641 2.285-4.131 1.483-6.357s-2.838-3.772-5.197-3.949c-16.958-1.265-35.488,4.733-53.604,17.348-9.747,6.783-16.954,13.764-20.367,17.305-0.2,0.206-0.468,0.32-0.815,0.32-0.284,0-0.554-0.111-0.736-0.3-3.585-3.727-11.14-11.029-21.455-18.058-18.031-12.288-35.708-17.877-52.55-16.614-2.36,0.177-4.395,1.725-5.196,3.951s-0.219,4.716 1.486,6.356c4.417,4.247 8.177,10.481 11.045,18.254-16.281,1.954-31.862,7.513-45.729,16.311-9.199-14.306-25.213-23.24-42.498-23.24-27.824,0-50.46,22.632-50.46,50.45 0,19.716 11.226,50.327 28.103,65.893-2.38,6.67-4.37,13.48-5.895,20.264-3.993,17.657-5.244,35.745-3.718,53.743 0.369,4.511 0.949,9.181 1.723,13.882 0.946,7.337 4.457,32.972 10.785,62.126 8.438,38.867 18.243,67.552 29.143,85.258 1.435,2.331 4.267,3.397 6.881,2.587 2.615-0.808 4.352-3.284 4.222-6.018-0.835-17.549 2.775-28.175 6.313-33.596 2.782,4.298 6.556,10.49 10.685,17.264 16.061,26.35 40.332,66.17 60.156,84.755 1.96,1.837 4.9,2.148 7.199,0.762 2.3-1.385 3.4-4.13 2.692-6.72-2.734-10.01-2.952-23.312-2.66-32.646 4.55,4.433 9.286,9.978 13.925,15.41 10.865,12.722 22.1,25.876 34.611,30.189 0.634,0.219 1.294,0.328 1.956,0.328 0.662,0 1.324-0.11 1.958-0.329 11.307-3.904 21.636-15.115 31.25-26.268 1.095-1.272 2.186-2.551 3.273-3.825 4.668-5.471 9.436-11.057 14.013-15.514 0.298,9.36 0.077,22.605-2.664,32.658-0.706,2.59 0.394,5.334 2.694,6.718 2.3,1.385 5.24,1.073 7.198-0.763 19.823-18.583 44.088-58.402 60.145-84.75 4.126-6.771 7.898-12.96 10.679-17.259 3.565,5.446 7.164,16.063 6.329,33.586-0.13,2.734 1.607,5.21 4.222,6.018s5.446-0.257 6.881-2.588c25.769-41.873 38.482-136.186 39.918-147.384 0.754-4.563 1.333-9.208 1.721-13.801 1.539-18.038 0.295-36.133-3.696-53.783-1.541-6.819-3.533-13.637-5.903-20.301zm-178.018,261.875c-7.665,0-13.9-6.236-13.9-13.9 0-7.664 6.236-13.9 13.9-13.9s13.9,6.236 13.9,13.9c0,7.664-6.235,13.9-13.9,13.9zm0-56.52c-40.838,0-79.566-13.024-111.997-37.664-26.277-19.964-46.931-46.936-59.447-77.253-2.283-5.529-3.729-11.379-4.221-17.341-0.002-0.03-0.005-0.06-0.007-0.089-0.955-11.266-0.738-22.562 0.629-33.75 20.401,43.475 56.469,78.113 101.182,96.619 6.761,12.738 20.186,20.898 34.671,20.898 0.474,0 0.955-0.01 1.441-0.029 4.714,16.73 20.05,28.529 37.75,28.529 17.69,0 33.025-11.797 37.747-28.528 15.073,0.582 29.126-7.708 36.101-20.865 44.723-18.501 80.798-53.127 101.202-96.585 1.363,11.186 1.574,22.49 0.612,33.773-0.003,0.03-0.005,0.061-0.008,0.091-0.514,6.04-1.999,11.966-4.322,17.565-12.531,30.209-33.148,57.08-59.354,76.983-32.429,24.628-71.151,37.646-111.979,37.646zm-161.449-239.856c-5.917-10.103-10.061-23.685-10.061-31.394 0-8.734 7.11-15.84 15.85-15.84 6.175,0 11.842,3.634 14.48,9.345l1.465,2.978c-3.577,4.42-6.864,9.162-9.752,14.156l-11.982,20.755zm9.314,7.869l13.06-22.619c2.078-3.594 4.381-7.046 6.869-10.319 25.392,23.827 56.487,40.265 90.404,47.754l37.803,65.484v39.738h-13.64c-4.177,0-8.114,2.035-10.531,5.444-2.417,3.409-3.036,7.798-1.653,11.742l3.08,8.769c2.634,7.508 8.245,13.367 15.221,16.481l-24.285,12.732c-1.161,0.126-2.3,0.203-3.381,0.203-11.955,0-23.021-6.971-28.191-17.756-2.016-4.216-3.039-8.749-3.039-13.474 0-6.14 1.776-12.072 5.169-17.203 0.369-0.575 0.73-1.093 1.124-1.607 7.668-10.162 14.23-20.803 19.498-31.617 2.735-5.572 5.181-11.33 7.271-17.114 0.914-2.531 1.692-4.831 2.375-7.022 1.527-4.872 0.662-10.037-2.374-14.17-3.07-4.179-7.802-6.576-12.983-6.576-2.209,0-4,1.791-4,4s1.791,4 4,4c2.607,0 4.989,1.207 6.535,3.312 1.512,2.059 1.945,4.625 1.186,7.048-0.531,1.704-1.128,3.486-1.803,5.398l-13.508-9.688c-4.49-3.21-10.74-2.19-13.96,2.3-3.21,4.49-2.19,10.74 2.3,13.96 0,0 16.565,11.76 17.266,12.048-4.858,9.807-10.822,19.456-17.736,28.689-7.187-2.938-14.232-6.351-21.02-10.189 4.299-6.989 6.56-14.966 6.56-23.327 0-24.675-20.075-44.75-44.75-44.75-9.275,0-18.273,2.883-25.784,8.179-4.209-6.41-8.024-13.094-11.393-19.952 0.033-0.09 1.078-2.933 1.552-4.145 2.278-5.805 4.91-11.518 7.85-17.039 0.774-1.462 4.908-8.714 4.908-8.714zm193.938,14.815c33.934-7.493 65.031-23.929 90.41-47.749 2.499,3.292 4.795,6.745 6.85,10.311l13.58,23.52c0,0 2.79,4.868 3.174,5.565 3.438,6.228 6.487,12.706 9.075,19.279 0.503,1.289 1.518,4.041 1.549,4.128-3.378,6.872-7.195,13.563-11.4,19.974-7.509-5.295-16.503-8.177-25.772-8.177-24.675,0-44.75,20.075-44.75,44.75 0,8.351 2.262,16.328 6.563,23.326-6.79,3.839-13.835,7.252-21.022,10.191-6.921-9.245-12.878-18.884-17.736-28.688 0.701-0.288 17.266-12.048 17.266-12.048 4.49-3.22 5.51-9.47 2.3-13.96-3.22-4.49-9.47-5.51-13.96-2.3l-13.508,9.688c-0.676-1.913-1.272-3.695-1.805-5.404-0.757-2.416-0.324-4.982 1.188-7.041 1.546-2.105 3.928-3.312 6.535-3.312 2.209,0 4-1.791 4-4s-1.791-4-4-4c-5.181,0-9.913,2.397-12.982,6.576-3.036,4.134-3.902,9.298-2.376,14.164 0.685,2.198 1.462,4.497 2.377,7.03 2.09,5.783 4.536,11.541 7.266,17.102 5.273,10.825 11.835,21.466 19.522,31.652 0.375,0.489 0.737,1.007 1.138,1.632 3.36,5.082 5.137,11.014 5.137,17.154 0,4.642-0.987,9.099-2.933,13.251-0.041,0.073-0.079,0.147-0.115,0.222-5.161,10.787-16.223,17.757-28.182,17.757-1.097,0-2.217-0.077-3.38-0.203l-24.274-12.726c1.69-0.755 3.32-1.66 4.855-2.749 4.814-3.413 8.394-8.164 10.352-13.742l3.069-8.768c1.382-3.941 0.764-8.33-1.654-11.739-2.417-3.409-6.354-5.444-10.531-5.444h-13.63v-39.738l37.804-65.484zm119.644-22.669l-11.989-20.765c-2.853-4.95-6.137-9.695-9.74-14.155l1.504-3.072c2.596-5.623 8.263-9.257 14.438-9.257 8.745,0 15.86,7.106 15.86,15.84 0,7.706-4.15,21.298-10.073,31.409zm-42.772,98.504c-0.762-1.544-1.175-3.247-1.175-5.013 0-6.247 5.083-11.33 11.33-11.33 1.995,0 3.936,0.533 5.639,1.509-4.971,5.242-10.261,10.211-15.794,14.834zm21.222-20.839c-3.224-2.25-7.08-3.504-11.067-3.504-10.658,0-19.33,8.671-19.33,19.33 0,3.599 0.999,7.045 2.833,10.049-4.629,3.53-9.442,6.858-14.386,9.948-3.556-5.759-5.427-12.333-5.427-19.217 0-20.264 16.486-36.75 36.75-36.75 7.637,0 15.047,2.381 21.224,6.757-3.334,4.633-6.878,9.112-10.597,13.387zm-41.035,44.67c7.496-4.479 14.75-9.5 21.563-14.927 8.136-6.49 15.813-13.701 22.816-21.427 5.737-6.314 11.127-13.117 16.023-20.22 3.839-5.57 7.394-11.364 10.636-17.317 0.856,2.987 1.639,5.988 2.318,8.991 0.137,0.605 0.263,1.213 0.393,1.819-17.45,44.558-51.609,80.714-95.007,100.746 0.534-2.598 0.816-5.257 0.816-7.968 0-6.09-1.414-12.011-4.066-17.361 8.421-3.514 16.647-7.65 24.508-12.336zm-81.232,13.556c1.612,0 3.071,0.755 4.005,2.072 0.934,1.317 1.164,2.944 0.629,4.467l-3.068,8.766c-1.405,4.002-3.975,7.413-7.43,9.862-3.454,2.448-7.522,3.743-11.765,3.743-0.001,0-0.002,0-0.002,0-8.627,0-16.34-5.467-19.195-13.605l-3.079-8.768c-0.533-1.521-0.304-3.149 0.63-4.466 0.933-1.316 2.393-2.071 4.005-2.071h35.27zm12.413,53.177c-3.763,13.309-15.965,22.693-30.043,22.693-14.087,0-26.289-9.384-30.045-22.692l30.045-15.751 30.043,15.75zm-148.718-90.564c-5.547-4.633-10.84-9.601-15.803-14.834 1.703-0.976 3.644-1.509 5.638-1.509 6.253,0 11.34,5.083 11.34,11.33-1.42109e-14,1.766-0.413,3.469-1.175,5.013zm-10.165-24.343c-3.987,0-7.842,1.255-11.067,3.505-3.737-4.295-7.282-8.773-10.599-13.387 6.179-4.376 13.593-6.758 21.236-6.758 20.264,0 36.75,16.486 36.75,36.75 0,6.895-1.87,13.469-5.424,19.219-4.945-3.091-9.759-6.419-14.388-9.949 1.834-3.005 2.833-6.451 2.833-10.049-0.001-10.66-8.677-19.331-19.341-19.331zm-43.366-16.773c0.669-2.976 1.446-5.956 2.297-8.928 3.237,5.944 6.792,11.732 10.632,17.298 4.855,7.058 10.247,13.862 16.022,20.219 6.987,7.71 14.668,14.92 22.832,21.433 6.813,5.426 14.066,10.447 21.563,14.927 7.859,4.686 16.085,8.821 24.506,12.335-2.659,5.367-4.068,11.279-4.068,17.36 0,2.711 0.282,5.369 0.816,7.967-43.392-20.036-77.547-56.206-94.997-100.783 0.133-0.61 0.26-1.22 0.397-1.828zm327.866-127.247c21.207,7.10543e-15 38.46,17.249 38.46,38.45 0,15.441-8.709,39.897-20.966,53.717-2.184-4.92-4.602-9.752-7.224-14.453 7.52-11.016 13.59-28.109 13.59-39.264 0-13.146-10.704-23.84-23.86-23.84-9.272,0-17.779,5.444-21.646,13.79-3.447-3.636-7.15-7.024-11.061-10.153 6.956-11.21 19.324-18.247 32.707-18.247zm-101.088,3.792c1.067,1.472 2.745,2.38 4.561,2.47 18.979,0.941 37.164,7.338 52.591,18.499 5.6,4.05 10.755,8.7 15.373,13.844-22.581,21.306-49.911,36.495-79.773,44.359l11.26-19.505c0.714-1.238 0.714-2.762 0-4-0.714-1.238-2.035-2-3.464-2h-25.1v-65.26c8.325-5.536 19.466-11.336 31.684-13.302-3.295,5.593-5.992,12.209-8.062,19.793-0.479,1.754-0.137,3.63 0.93,5.102zm-63.982,5.572c2.436,2.527 5.854,3.976 9.44,3.976 3.508,0 6.921-1.444 9.38-3.976 2.374-2.463 6.741-6.729 12.609-11.356v63.452c0,2.209 1.791,4 4,4h22.172l-48.191,83.479-48.192-83.479h22.182c2.209,0 4-1.791 4-4v-63.437c6.177,4.876 10.643,9.307 12.6,11.341zm-44.242-10.674c-2.07-7.587-4.767-14.203-8.06-19.794 12.32,1.985 23.514,7.862 31.702,13.311v65.252h-25.11c-1.429,0-2.75,0.762-3.464,2-0.715,1.238-0.715,2.762 0,4l11.26,19.505c-29.85-7.864-57.181-23.057-79.774-44.371 4.601-5.13 9.757-9.779 15.375-13.842 15.416-11.154 33.598-17.547 52.58-18.489 1.815-0.09 3.493-0.999 4.56-2.47 1.067-1.472 1.41-3.348 0.931-5.102zm-140.468,39.76c3.55271e-15-21.201 17.253-38.45 38.46-38.45 13.381,0 25.748,7.034 32.706,18.238-3.922,3.136-7.627,6.525-11.066,10.155-3.925-8.375-12.401-13.782-21.64-13.782-13.151,0-23.85,10.695-23.85,23.84 0,11.16 6.064,28.244 13.579,39.253-2.622,4.693-5.042,9.525-7.226,14.454-12.255-13.836-20.963-38.285-20.963-53.708zm166.679,335.17c-8.589-10.057-16.703-19.557-25.248-24.693-0.948-0.57-2.019-0.857-3.091-0.857-0.911,0-1.824,0.207-2.666,0.625-1.833,0.909-3.077,2.69-3.298,4.724-0.021,0.195-1.436,13.52-0.612,28.229-15.813-19.702-32.997-47.894-45.276-68.04-8.35-13.7-12.834-20.997-15.565-24.177-1.854-2.157-4.967-2.718-7.455-1.341-1.393,0.77-10.914,6.667-14.75,25.628-12.162-29.973-20.378-71.201-24.81-97.749 13.093,24.216 31.337,45.693 53.377,62.438 32.774,24.9 71.709,38.43 112.836,39.254v13.133c-10.171,1.886-17.9,10.818-17.9,21.527s7.729,19.642 17.9,21.527v23.334c-7.67-5.11-15.661-14.451-23.442-23.562zm172.856-59.913c-3.84-19.058-13.417-24.885-14.817-25.643-2.482-1.344-5.569-0.777-7.409,1.366-2.732,3.18-7.217,10.479-15.567,24.182-12.278,20.148-29.459,48.342-45.272,68.043 0.722-12.938-0.283-24.901-0.593-28.126-0.187-2.057-1.417-3.874-3.259-4.809-1.842-0.935-4.035-0.857-5.806,0.206-8.574,5.148-16.717,14.69-25.337,24.792-1.078,1.262-2.158,2.529-3.238,3.784-6.294,7.302-13.334,15.113-20.115,19.658v-23.313c10.171-1.886 17.9-10.818 17.9-21.527s-7.729-19.641-17.9-21.527v-13.133c41.117-0.824 80.045-14.347 112.815-39.234 22.052-16.748 40.306-38.233 53.405-62.458-4.416,26.528-12.613,67.726-24.807,97.739z"/>
  </g>
</svg>
